<?xml version="1.0" encoding="utf-8"?>
<!-- Generator: Adobe Illustrator 16.0.0, SVG Export Plug-In . SVG Version: 6.00 Build 0)  -->
<!DOCTYPE svg PUBLIC "-//W3C//DTD SVG 1.1//EN" "http://www.w3.org/Graphics/SVG/1.1/DTD/svg11.dtd">
<svg version="1.1" id="Layer_1" xmlns="http://www.w3.org/2000/svg" xmlns:xlink="http://www.w3.org/1999/xlink" x="0px" y="0px"
	 width="121px" height="35px" viewBox="0 0 121 35" enable-background="new 0 0 121 35" xml:space="preserve">
<g>
	<path fill="#FFFFFF" d="M52.516,9.804h-2.989V6.996c0-1.213-1.046-2.196-2.337-2.196s-2.337,0.983-2.337,2.196v2.808h-2.99
		c-1.29,0-2.336,0.983-2.336,2.196s1.046,2.196,2.337,2.196h2.989v2.808c0,1.213,1.046,2.196,2.337,2.196s2.337-0.983,2.337-2.196
		v-2.808h2.99c1.29,0,2.336-0.983,2.336-2.196S53.807,9.804,52.516,9.804"/>
	<path fill="#FFFFFF" d="M33.385,15.374h-7.022c0.039-0.056,0.073-0.114,0.114-0.17c1.566-2.082,4.546-2.52,6.658-0.975
		c0.446,0.326,0.814,0.715,1.108,1.145H33.385z M39.493,16.446c-0.003-0.02-0.01-0.04-0.013-0.06
		c-0.419-2.32-1.717-4.389-3.625-5.775c-4.138-3.027-9.979-2.171-13.047,1.91c-3.067,4.082-2.2,9.844,1.938,12.87
		c3.693,2.7,8.74,2.308,11.964-0.709c0.012-0.012,0.025-0.021,0.037-0.033l0.02-0.02l0.032-0.029l-0.002-0.002
		c0.866-0.863,0.875-2.263,0.022-3.139c-0.859-0.881-2.258-0.932-3.18-0.117l-0.001-0.001l-0.045,0.04l-0.009,0.008l-0.001,0.002
		c-1.683,1.58-4.251,1.74-6.117,0.381c-0.898-0.652-1.534-1.605-1.794-2.686h10.574v-0.003h0.993
		c1.249,0.015,2.271-0.986,2.286-2.234C39.526,16.714,39.516,16.579,39.493,16.446z"/>
	<g transform="translate(0 8.8)">
		<defs>
			<filter id="Adobe_OpacityMaskFilter" filterUnits="userSpaceOnUse" x="0" y="0.17" width="18.36" height="26.23">
				<feColorMatrix  type="matrix" values="1 0 0 0 0  0 1 0 0 0  0 0 1 0 0  0 0 0 1 0"/>
			</filter>
		</defs>
		<mask maskUnits="userSpaceOnUse" x="0" y="0.17" width="18.36" height="26.23" id="b">
			<g filter="url(#Adobe_OpacityMaskFilter)">
				<path id="a" fill="#FFFFFF" d="M0,0.17h18.36V26.4H0V0.17z"/>
			</g>
		</mask>
		<path mask="url(#b)" fill="#FFFFFF" d="M9.18,13.757c-2.587,0-4.685-2.056-4.685-4.591c0-2.536,2.098-4.59,4.685-4.59
			c2.587,0,4.685,2.054,4.685,4.59C13.865,11.701,11.767,13.757,9.18,13.757 M18.36,9.166c0-4.969-4.11-8.996-9.18-8.996
			C4.11,0.17,0,4.197,0,9.166c0,4.968,4.11,8.995,9.18,8.995c1.646,0.004,3.264-0.432,4.687-1.26v0.222
			c0,2.696-2.2,4.853-4.953,4.853c-1.431,0-2.825-0.573-3.742-1.653c-0.807-0.935-2.237-1.042-3.153-0.214
			c-0.957,0.753-1.03,2.156-0.257,3.09c1.796,2.05,4.402,3.202,7.152,3.202c5.21,0,9.43-4.173,9.43-9.277V9.688
			C18.354,9.514,18.36,9.341,18.36,9.166"/>
	</g>
	<path fill="#FFFFFF" d="M54.047,25.745c0-1.229-0.96-2.228-2.145-2.228c-2.038,0-2.44-1.132-2.517-1.641
		c-0.009-0.08-0.015-0.161-0.018-0.242v-0.671h-0.003c0.002-0.089-0.067-0.161-0.156-0.164c0,0-0.001,0-0.002,0
		c-0.026,0-0.045,0.015-0.066,0.028c-0.47,0.547-1.156,0.861-1.877,0.859c-0.518,0.001-1.022-0.161-1.442-0.463
		c-0.066-0.049-0.13-0.1-0.192-0.154c-0.015-0.012-0.033-0.025-0.048-0.039c-0.037-0.036-0.073-0.072-0.108-0.11
		c-0.026-0.026-0.055-0.053-0.08-0.081v0.008c-0.023-0.017-0.047-0.033-0.077-0.033c-0.081,0.002-0.145,0.068-0.143,0.149l0,0v2.101
		c0,1.123,0.49,2.43,1.187,3.266c0.807,0.945,1.923,1.453,3.075,1.635C49.751,28,51.635,28,51.951,28
		c1.152,0,2.096-0.941,2.096-2.178l-0.002-0.038L54.047,25.745"/>
	<g transform="translate(59.693 8.8)">
		<defs>
			<filter id="Adobe_OpacityMaskFilter_1_" filterUnits="userSpaceOnUse" x="0.12" y="0.185" width="18.354" height="26.215">
				<feColorMatrix  type="matrix" values="1 0 0 0 0  0 1 0 0 0  0 0 1 0 0  0 0 0 1 0"/>
			</filter>
		</defs>
		<mask maskUnits="userSpaceOnUse" x="0.12" y="0.185" width="18.354" height="26.215" id="d">
			<g filter="url(#Adobe_OpacityMaskFilter_1_)">
				<path id="c" fill="#FFFFFF" d="M0.12,0.185h18.355V26.4H0.121L0.12,0.185z"/>
			</g>
		</mask>
		<path mask="url(#d)" fill="#FFFFFF" d="M9.298,13.748c-2.589,0-4.687-2.056-4.687-4.592c0-2.537,2.098-4.594,4.687-4.594
			c2.588,0,4.687,2.057,4.687,4.594C13.985,11.692,11.886,13.748,9.298,13.748 M9.298,0.185c-5.068,0-9.178,4.027-9.178,8.993
			v15.088c0,1.179,0.974,2.134,2.175,2.134l0.039-0.002L2.371,26.4c1.244,0,2.252-0.988,2.252-2.207v-7.29
			c1.418,0.83,3.031,1.268,4.674,1.268c5.068,0,9.177-4.025,9.177-8.993C18.474,4.212,14.366,0.185,9.298,0.185"/>
	</g>
	<path fill="#FFFFFF" d="M103.35,8.8c-1.285,0-2.326,1.01-2.326,2.254l0.002,0.022v6.618c0,2.728-2.346,4.921-4.609,4.921h-0.038
		c-2.265,0-4.61-2.193-4.61-4.921v-6.62l0.002-0.02c0-1.245-1.041-2.254-2.324-2.254c-1.284,0-2.325,1.01-2.325,2.254v6.64
		c0,5.225,4.182,9.506,9.258,9.506l0.019-0.001l0.021,0.001c5.075,0,9.256-4.28,9.256-9.506v-6.64
		C105.673,9.809,104.633,8.8,103.35,8.8"/>
	<g transform="translate(79.86)">
		<defs>
			<filter id="Adobe_OpacityMaskFilter_2_" filterUnits="userSpaceOnUse" x="0.169" y="0.065" width="4.515" height="26.333">
				<feColorMatrix  type="matrix" values="1 0 0 0 0  0 1 0 0 0  0 0 1 0 0  0 0 0 1 0"/>
			</filter>
		</defs>
		<mask maskUnits="userSpaceOnUse" x="0.169" y="0.065" width="4.515" height="26.333" id="f">
			<g filter="url(#Adobe_OpacityMaskFilter_2_)">
				<path id="e" fill="#FFFFFF" d="M0.169,0.065h4.515V26.4H0.169V0.065z"/>
			</g>
		</mask>
		<path mask="url(#f)" fill="#FFFFFF" d="M2.427,0.065c-1.246,0-2.258,0.952-2.258,2.125v22.082c0,1.176,1.011,2.127,2.258,2.127
			s2.257-0.951,2.257-2.127V2.191C4.684,1.017,3.674,0.065,2.427,0.065"/>
	</g>
	<path fill="#FFFFFF" d="M52.516,9.804h-2.989V6.996c0-1.213-1.046-2.196-2.337-2.196s-2.337,0.983-2.337,2.196v2.808h-2.99
		c-1.29,0-2.336,0.983-2.336,2.196s1.046,2.196,2.337,2.196h2.989v2.808c0,1.213,1.046,2.196,2.337,2.196s2.337-0.983,2.337-2.196
		v-2.808h2.99c1.29,0,2.336-0.983,2.336-2.196S53.807,9.804,52.516,9.804 M117.549,16.265c-1.25-0.558-2.502-0.558-3.488-0.597
		c-0.606,0-1.175,0-1.557-0.11c-0.301-0.111-0.643-0.59-0.68-0.78c-0.152-1.591,1.97-1.662,3.107-1.48
		c0.684,0.114,1.063,0.37,1.594,0.74c0.303,0.184,0.644,0.297,0.988,0.333c0.717,0.078,1.432-0.181,1.932-0.702
		c0.836-0.89,0.758-2.298-0.15-3.114c-0.949-0.852-2.087-1.37-3.6-1.627c-2.012-0.337-4.78-0.077-6.676,1.627
		c-0.873,0.816-1.898,2.263-1.709,4.596c0.152,1.929,1.744,3.93,3.717,4.56c1.062,0.373,2.086,0.408,2.996,0.408
		c0.682,0,1.289,0,1.631,0.186c0.38,0.147,0.835,0.516,0.835,1.037c0,0.408-0.23,0.815-0.608,1.037
		c-1.439,0.928-3.982,0.077-4.665-0.555c-0.907-0.816-2.35-0.781-3.187,0.148c-0.869,0.889-0.795,2.295,0.117,3.116
		c1.25,1.144,3.678,2.111,6.104,2.111c1.443,0,2.846-0.3,4.137-1.115c1.629-1.073,2.613-2.853,2.613-4.743
		C121,19.191,119.635,17.192,117.549,16.265"/>
</g>
</svg>
